<?xml version="1.0" standalone="no"?><!DOCTYPE svg PUBLIC "-//W3C//DTD SVG 1.1//EN" "http://www.w3.org/Graphics/SVG/1.1/DTD/svg11.dtd"><svg t="1618399932253" class="icon" viewBox="0 0 1024 1024" version="1.1" xmlns="http://www.w3.org/2000/svg" p-id="5324" xmlns:xlink="http://www.w3.org/1999/xlink" width="200" height="200"><defs><style type="text/css"></style></defs><path d="M512 512.002m-511.998 0a511.998 511.998 0 1 0 1023.996 0 511.998 511.998 0 1 0-1023.996 0Z" fill="#BE3D27" p-id="5325"></path><path d="M512 512.002m-407.00441 0a407.00441 407.00441 0 1 0 814.00882 0 407.00441 407.00441 0 1 0-814.00882 0Z" fill="#E65439" p-id="5326"></path><path d="M861.436635 355.212612H834.418741c-7.537971-10.453959-19.787923-17.285932-33.657869-17.285932h-29.507885c-16.107937-37.515853-53.375792-63.791751-96.791622-63.791751h-178.199304c-25.343901-23.13991-59.065769-37.261854-96.089624-37.261854h-178.481303c-78.733692 0-142.563443 63.827751-142.565443 142.565443 0 78.733692 63.831751 142.561443 142.565443 142.561443h178.479303a141.947446 141.947446 0 0 0 63.357752-14.851942c-0.008 0.315999-0.048 0.621998-0.047999 0.941996v115.729548l-135.665471 265.650963c-7.537971 14.753942-1.683993 32.823872 13.071949 40.359842a29.847883 29.847883 0 0 0 13.621947 3.289987c10.911957 0 21.437916-5.971977 26.739896-16.359936L509.760009 665.117402h4.531982l22.337913 240.769059c1.443994 15.557939 14.517943 27.229894 29.835883 27.229894 0.927996 0 1.865993-0.042 2.805989-0.127999 16.497936-1.531994 28.629888-16.143937 27.099894-32.643873l-4.597982-49.553806 31.929876 78.877691c4.723982 11.671954 15.957938 18.753927 27.817891 18.753927 3.747985 0 7.55797-0.707997 11.245956-2.199991 15.35994-6.217976 22.769911-23.707907 16.551935-39.065848l-106.793582-263.830969-0.811997-8.737966c0.531998-2.54599 0.817997-5.18398 0.817997-7.885969v-118.609537c0-8.791966-2.985988-16.871934-7.955969-23.347909h109.88757c30.227882 0 57.461776-12.75795 76.665701-33.15987l0.413998-0.429998c0.881997-0.949996 1.741993-1.921992 2.58999-2.901989 0.203999-0.233999 0.409998-0.467998 0.613998-0.707997 0.795997-0.941996 1.573994-1.893993 2.339991-2.863989l0.691997-0.877997a106.399584 106.399584 0 0 0 4.847981-6.803973c0.225999-0.347999 0.445998-0.695997 0.667997-1.039996 0.635998-1.003996 1.265995-2.011992 1.871993-3.035988 0.199999-0.339999 0.389998-0.679997 0.585998-1.019996 0.607998-1.057996 1.207995-2.121992 1.781993-3.199988l0.437998-0.855996c0.597998-1.151996 1.187995-2.311991 1.741993-3.491987l0.026-0.045999h-0.002c0.523998-1.113996 1.033996-2.229991 1.519994-3.363987h29.505885c13.869946 0 26.121898-6.827973 33.659869-17.281933h27.015894c13.377948 0 24.225905-10.847958 24.225905-24.225905-0.006-13.379948-10.853958-24.223905-24.229905-24.223906z" fill="#BE3D27" p-id="5327"></path><path d="M924.814387 329.522713c0-13.381948-10.847958-24.225905-24.223905-24.225906h-43.59383l-0.002 48.453811h43.59383c13.377948-0.002 24.225905-10.849958 24.225905-24.227905z" fill="#CDCCCA" p-id="5328"></path><path d="M881.424557 329.522713c0-22.92591-18.587927-41.511838-41.509838-41.511838h-74.693708v83.019676h74.691708c22.92191 0 41.511838-18.581927 41.511838-41.507838z" fill="#323232" p-id="5329"></path><path d="M818.916801 329.522713c0.002-58.159773-47.141816-105.303589-105.299589-105.303589h-189.481259l-0.002 210.609177h189.483259c58.155773-0.002 105.299589-47.149816 105.299589-105.305588z" fill="#CDCCCA" p-id="5330"></path><path d="M605.651634 434.826301h32.659873c28.713888 0 54.729786-11.507955 73.725712-30.139882h-32.663873c-18.995926 18.631927-45.005824 30.139882-73.721712 30.139882zM743.617095 329.522713c0-58.159773-47.143816-105.303589-105.301588-105.303589h-32.661873c58.157773 0 105.301589 47.143816 105.299589 105.303589 0 6.453975-0.609998 12.76195-1.721993 18.897926h32.659872a105.859586 105.859586 0 0 0 1.725993-18.897926zM700.925262 374.392538h32.659872a104.673591 104.673591 0 0 0 4.651982-11.651955h-32.663872a103.883594 103.883594 0 0 1-4.647982 11.651955z" fill="#323232" p-id="5331"></path><path d="M554.425834 434.826301h32.659873c28.713888 0 54.729786-11.507955 73.725712-30.139882h-32.663873c-18.995926 18.631927-45.007824 30.139882-73.721712 30.139882zM687.011316 362.740583h-32.663872a104.265593 104.265593 0 0 1-4.647982 11.651955h32.659873a105.05959 105.05959 0 0 0 4.651981-11.651955zM692.389295 329.522713c0-58.159773-47.143816-105.303589-105.301588-105.303589h-32.661873c58.157773 0 105.301589 47.143816 105.299589 105.303589 0 6.453975-0.609998 12.76195-1.721993 18.897926h32.659872c1.113996-6.135976 1.725993-12.445951 1.725993-18.897926z" fill="#323232" p-id="5332"></path><path d="M712.039219 404.686419h75.299705a105.521588 105.521588 0 0 0 21.549916-30.291881h-75.303706a105.663587 105.663587 0 0 1-21.545915 30.291881zM649.699462 374.392538h-114.851551v30.291881h93.299635a105.511588 105.511588 0 0 0 21.551916-30.291881zM700.925262 374.392538h-18.565927a105.609587 105.609587 0 0 1-21.545916 30.291881h18.561927a105.545588 105.545588 0 0 0 21.549916-30.291881z" fill="#E8E9EC" p-id="5333"></path><path d="M679.375346 404.686419h32.663873a105.587588 105.587588 0 0 0 21.545915-30.291881h-32.659872a105.599588 105.599588 0 0 1-21.549916 30.291881zM682.359335 374.392538h-32.659873a105.545588 105.545588 0 0 1-21.549916 30.291881h32.663873a105.609587 105.609587 0 0 0 21.545916-30.291881z" fill="#494A4A" p-id="5334"></path><path d="M534.847911 348.420639v14.319944h119.499533a104.805591 104.805591 0 0 0 3.655986-14.319944h-123.155519zM813.538822 362.740583a104.805591 104.805591 0 0 0 3.655986-14.319944h-75.303706a104.215593 104.215593 0 0 1-3.651986 14.319944h75.299706zM705.573244 362.740583a104.805591 104.805591 0 0 0 3.655986-14.319944h-18.565928a104.215593 104.215593 0 0 1-3.651986 14.319944h18.561928z" fill="#E8E9EC" p-id="5335"></path><path d="M738.237116 362.740583a104.215593 104.215593 0 0 0 3.651986-14.319944h-32.659872a104.805591 104.805591 0 0 1-3.655986 14.319944h32.663872zM690.663302 348.420639h-32.659872a104.805591 104.805591 0 0 1-3.655986 14.319944h32.663872a104.215593 104.215593 0 0 0 3.651986-14.319944z" fill="#494A4A" p-id="5336"></path><path d="M260.844981 329.520713m-142.563443 0a142.563443 142.563443 0 1 0 285.126886 0 142.563443 142.563443 0 1 0-285.126886 0Z" fill="#E8E9EC" p-id="5337"></path><path d="M260.844981 329.522713m-123.299518 0a123.299518 123.299518 0 1 0 246.599036 0 123.299518 123.299518 0 1 0-246.599036 0Z" fill="#2A81C2" p-id="5338"></path><path d="M605.617634 883.20055c-15.31794 0-28.391889-11.671954-29.835883-27.229894l-25.6459-276.41692c-1.531994-16.495936 10.601959-31.113878 27.099894-32.639872 16.493936-1.545994 31.111878 10.597959 32.641873 27.097894l25.645899 276.41692c1.531994 16.499936-10.601959 31.113878-27.099894 32.643872-0.941996 0.084-1.879993 0.128-2.805989 0.128z" fill="#323232" p-id="5339"></path><path d="M393.660462 883.20455a29.819884 29.819884 0 0 1-13.621947-3.289987c-14.755942-7.535971-20.609919-25.6059-13.071948-40.359843l141.163448-276.41692c7.535971-14.757942 25.6119-20.609919 40.361842-13.073949 14.755942 7.535971 20.609919 25.6059 13.071949 40.363843L420.400358 866.844614c-5.301979 10.385959-15.827938 16.359936-26.739896 16.359936z" fill="#323232" p-id="5340"></path><path d="M579.467736 458.17421c0-21.217917-17.199933-38.41785-38.417849-38.41785s-38.41785 17.199933-38.41785 38.41785v118.609537c0 21.217917 17.199933 38.41785 38.41785 38.41785s38.41785-17.199933 38.417849-38.41785v-118.609537z" fill="#323232" p-id="5341"></path><path d="M541.049887 419.75636h32.213874v195.445237h-32.213874z" fill="#323232" p-id="5342"></path><path d="M611.683611 458.17421c0-21.217917-17.199933-38.41785-38.41785-38.41785s-38.41785 17.199933-38.41785 38.41785v118.609537c0 21.217917 17.199933 38.41785 38.41785 38.41785s38.41785-17.199933 38.41785-38.41785v-118.609537z" fill="#494A4A" p-id="5343"></path><path d="M573.265761 456.146218m-27.625892 0a27.625892 27.625892 0 1 0 55.251784 0 27.625892 27.625892 0 1 0-55.251784 0Z" fill="#E8E9EC" p-id="5344"></path><path d="M690.673302 898.50449c-11.861954 0-23.09391-7.081972-27.817891-18.753927L544.773872 588.037703c-6.215976-15.35594 1.193995-32.847872 16.551935-39.061847 15.35394-6.209976 32.847872 1.191995 39.063848 16.549935l118.081538 291.71286c6.215976 15.35994-1.193995 32.847872-16.551935 39.065848a29.929883 29.929883 0 0 1-11.245956 2.199991z" fill="#494A4A" p-id="5345"></path><path d="M581.885727 329.522713c0.002-78.737692-63.825751-142.565443-142.559443-142.565443h-178.481303v285.126886h178.479303c78.733692 0 142.561443-63.827751 142.561443-142.561443z" fill="#CDCCCA" p-id="5346"></path><path d="M565.69579 395.494455H281.040902v48.925809h242.659052a143.171441 143.171441 0 0 0 41.995836-48.925809zM572.577763 380.216515a141.739446 141.739446 0 0 0 6.889973-24.635904H281.040902v24.635904h291.536861z" fill="#E8E9EC" p-id="5347"></path><path d="M260.844981 329.520713m-142.563443 0a142.563443 142.563443 0 1 0 285.126886 0 142.563443 142.563443 0 1 0-285.126886 0Z" fill="#E8E9EC" p-id="5348"></path><path d="M260.844981 329.522713m-123.299518 0a123.299518 123.299518 0 1 0 246.599036 0 123.299518 123.299518 0 1 0-246.599036 0Z" fill="#2A81C2" p-id="5349"></path><path d="M384.144499 329.522713c0-62.323757-46.253819-113.819555-106.299584-122.105523-60.045765 8.285968-106.297585 59.781766-106.299585 122.105523 0 62.323757 46.253819 113.819555 106.299585 122.105523 60.045765-8.285968 106.299585-59.781766 106.299584-122.105523z" fill="#1669AD" p-id="5350"></path><path d="M252.301014 333.272698c16.381936 0 29.667884 13.281948 29.667885 29.667884 0 6.015977-1.803993 11.609955-4.881981 16.285937 3.683986 0.635998 7.459971 0.991996 11.327955 0.991996 36.331858 0 65.785743-29.453885 65.785743-65.785743s-29.451885-65.781743-65.785743-65.781743c-36.327858 0-65.781743 29.449885-65.781743 65.781743a65.487744 65.487744 0 0 0 6.957973 29.437885c5.441979-6.477975 13.589947-10.597959 22.709911-10.597959z" fill="#2A81C2" p-id="5351"></path></svg>